PathFileType	4	(X/Y/Z)	Kaydara																																																																																																																									
DataRate	CameraRate	NumFrames	NumMarkers	Units	OrigDataRate	OrigDataStartFrame	OrigNumFrames																																																																																																																					
30	30	6	41	mm	30	222	354																																																																																																																					
Frame#	Time	SALE_LFHD			SALE_RFHD			SALE_LBHD			SALE_RBHD			SALE_LFTShould			SALE_RFTShould			SALE_LRRShould			SALE_RRRShould			SALE_T10			SALE_STRN			SALE_TRUN			SALE_LSHO			SALE_LUPA			SALE_LELB			SALE_LFRM			SALE_LWRA			SALE_LWRB			SALE_LFIN			SALE_RSHO			SALE_RUPA			SALE_RELB			SALE_RFRM			SALE_RWRB			SALE_RFIN			SALE_LFWT			SALE_RFWT			SALE_LBWT			SALE_RBWT			SALE_LTHI			SALE_LKNE			SALE_RWRA			SALE_LSHN			SALE_LANK			SALE_LHEE			SALE_LTOE			SALE_RTHI			SALE_RKNE			SALE_RSHN			SALE_RANK			SALE_RHEE			SALE_RTOE		
		X1	Y1	Z1	X2	Y2	Z2	X3	Y3	Z3	X4	Y4	Z4	X5	Y5	Z5	X6	Y6	Z6	X7	Y7	Z7	X8	Y8	Z8	X9	Y9	Z9	X10	Y10	Z10	X11	Y11	Z11	X12	Y12	Z12	X13	Y13	Z13	X14	Y14	Z14	X15	Y15	Z15	X16	Y16	Z16	X17	Y17	Z17	X18	Y18	Z18	X19	Y19	Z19	X20	Y20	Z20	X21	Y21	Z21	X22	Y22	Z22	X23	Y23	Z23	X24	Y24	Z24	X25	Y25	Z25	X26	Y26	Z26	X27	Y27	Z27	X28	Y28	Z28	X29	Y29	Z29	X30	Y30	Z30	X31	Y31	Z31	X32	Y32	Z32	X33	Y33	Z33	X34	Y34	Z34	X35	Y35	Z35	X36	Y36	Z36	X37	Y37	Z37	X38	Y38	Z38	X39	Y39	Z39	X40	Y40	Z40	X41	Y41	Z41
																																																																																																																												
222	7.377	266.8972	1510.60074	-310.4191	137.71461	1514.04373	-295.60408	254.55088	1597.60925	-408.47511	130.19002	1596.70837	-390.86113	257.70666	1350.92056	-469.10812	115.67658	1346.49475	-456.09592	239.91531	1418.22662	-572.76066	91.48276	1419.52515	-553.49846	161.21162	1271.00426	-646.31561	186.50097	1275.33661	-422.07333	188.15077	1187.14073	-386.23718	364.32358	1386.25031	-547.74555	400.14805	1173.66692	-593.52314	379.15218	1066.02493	-617.12242	413.53951	959.24789	-601.52901	364.41833	815.90614	-536.16413	421.68835	811.90842	-586.39084	427.34695	765.63614	-541.60965	3.66674	1381.2674	-508.58158	-39.63974	1155.81154	-577.64248	-71.28458	1055.19402	-533.08052	-68.193	940.22858	-536.96049	-87.02893	806.94664	-481.08253	-94.94785	773.16765	-423.20034	311.83893	950.41985	-448.42041	34.49178	947.42386	-458.98689	264.58487	994.62959	-622.80766	85.32262	1007.24731	-628.11096	307.31762	624.59091	-485.48145	284.12237	507.78343	-333.3593	-38.30666	821.58951	-425.78712	284.26239	297.20497	-327.08405	288.31375	114.14577	-376.49052	255.43711	62.16103	-443.83602	254.83229	73.30759	-249.43512	42.92453	703.8607	-636.19953	69.99265	539.08237	-551.05263	140.01016	352.37514	-593.96915	111.89122	110.66566	-687.36679	124.361	59.29172	-573.31116	162.10548	58.31609	-763.12729
223	7.41	270.06519	1506.56921	-284.71725	141.13432	1510.86578	-267.68824	256.66677	1594.08722	-382.23392	132.59974	1594.01367	-362.54505	257.28748	1347.9097	-442.16076	115.5842	1343.44086	-430.30685	239.79038	1415.4509	-545.84167	91.40758	1417.04498	-526.79115	161.08345	1268.52989	-619.69036	185.71957	1272.32811	-395.53047	187.09196	1184.08615	-359.94133	364.11293	1383.37921	-520.60047	400.46932	1170.55603	-564.78901	380.10117	1062.7887	-588.14289	414.72778	956.34331	-572.23816	366.39179	813.00415	-506.6256	423.56144	809.09988	-556.51817	429.93916	763.37517	-511.5551	3.42329	1378.87924	-482.13219	-40.34615	1153.05443	-550.2071	-71.51202	1052.59682	-504.8597	-67.81785	937.42897	-506.4753	-85.65625	805.38277	-447.38411	-92.62777	773.29742	-388.17451	311.52386	946.73447	-422.3922	34.08614	944.02328	-434.62677	264.70484	993.37914	-596.34632	85.71147	1006.06369	-602.73407	309.37851	620.04738	-468.46828	284.41082	501.70231	-316.99265	-36.48217	821.82228	-392.21115	281.72689	299.6603	-279.45892	282.20358	111.06321	-295.31784	250.19348	54.09952	-355.1445	243.46266	78.70267	-160.53782	44.18212	704.71573	-617.92336	69.52935	538.22834	-537.1579	139.85904	352.34657	-584.83452	112.3174	113.73594	-685.74226	123.81432	59.19003	-573.339	163.54982	63.05406	-762.32986
224	7.443	272.73619	1502.62314	-258.81863	143.96645	1507.43835	-240.37138	258.61891	1590.2211	-356.13445	134.7986	1590.58929	-335.14423	257.69106	1344.11636	-414.84116	115.91763	1340.10605	-403.71723	240.75394	1411.63773	-518.73451	92.32884	1413.6116	-500.31658	162.27343	1264.82605	-592.69833	185.67999	1268.96912	-368.47012	186.63622	1180.69824	-332.79228	364.88041	1379.58435	-492.74738	401.7588	1166.55731	-535.04913	381.92406	1058.60657	-557.85889	416.7329	952.55829	-541.27438	369.91089	809.9913	-470.20485	426.10157	805.41542	-524.88907	432.35931	759.83765	-479.72279	4.11212	1375.87463	-455.96119	-39.5561	1149.82552	-523.25706	-70.51201	1049.4545	-477.13459	-66.25557	934.12582	-476.82182	-83.39692	803.0938	-415.14309	-89.55579	772.18689	-355.09323	311.12547	942.4762	-394.45278	33.80191	940.72571	-408.75721	265.17998	990.76553	-568.36349	86.40869	1004.10133	-575.90878	310.91337	615.28126	-450.23197	284.99552	492.22523	-302.08176	-33.78929	820.97969	-360.31227	279.24622	303.34192	-240.04211	278.00978	114.46662	-228.1204	247.04306	50.66181	-280.01301	236.01864	97.79799	-88.50914	44.64876	706.16249	-597.66247	68.7605	537.56306	-521.40213	139.11625	352.22954	-574.30046	112.2252	117.23852	-683.76328	123.16221	58.99144	-572.95979	164.21507	68.57352	-761.19438
225	7.477	274.92159	1499.1626	-232.27766	146.15676	1504.15009	-213.56718	260.65693	1586.53564	-329.83936	136.83415	1587.20291	-308.53384	258.81491	1339.91486	-387.40467	117.12831	1336.60355	-377.07607	243.06526	1407.34863	-491.4941	94.38733	1409.88342	-473.93219	164.56385	1260.42671	-565.2063	186.25271	1265.21347	-340.96077	186.5506	1177.09572	-304.98892	366.82106	1374.90082	-464.34273	403.97526	1161.4621	-504.51588	384.58584	1053.35052	-526.65981	419.40933	947.46826	-509.1011	371.51058	804.45198	-440.90958	428.83541	800.52658	-491.74362	434.56963	755.13435	-446.27445	5.75259	1372.35809	-430.04192	-37.61459	1145.84267	-496.56605	-68.55269	1045.66399	-449.86874	-63.80832	930.25642	-448.07621	-80.28728	799.8848	-384.67495	-86.03056	769.82025	-324.08051	310.56105	937.89154	-364.6962	33.23705	937.48093	-381.54495	266.2952	986.88133	-538.90968	87.42623	1001.25366	-548.10802	310.01968	611.0088	-427.39174	287.08138	484.51679	-281.16228	-30.64538	818.92761	-329.97437	278.91033	303.40361	-209.33748	273.00568	115.61343	-183.09044	238.104	47.29357	-228.53027	232.83031	113.8034	-42.27587	45.23676	706.58791	-574.86721	68.10623	536.30054	-502.9818	138.80508	351.83445	-561.94347	111.6373	121.04672	-680.29144	122.54944	58.81151	-572.15088	163.3214	75.20421	-759.69727
226	7.51	276.58014	1496.48453	-205.34311	147.90329	1501.56815	-187.12795	262.85465	1583.44925	-303.2844	138.92858	1584.16214	-282.4407	260.66177	1335.93613	-359.54483	119.03527	1333.39752	-349.94694	246.29353	1403.02643	-463.94501	97.40908	1406.41647	-447.29782	167.5345	1256.11252	-537.33986	187.50084	1261.66702	-312.97771	186.95446	1173.68698	-276.6778	369.61918	1369.97467	-435.81734	407.00142	1155.89539	-473.14056	387.99599	1047.3851	-494.18846	422.32285	941.97235	-475.85426	373.67161	799.33228	-408.14693	431.55334	795.1738	-457.38991	436.82758	750.14259	-411.57562	8.24364	1369.23462	-403.84083	-34.93466	1142.19498	-469.63394	-65.70562	1042.22145	-422.53891	-60.71427	926.86111	-420.2367	-76.76402	796.73706	-356.18793	-82.25769	767.04582	-295.36966	310.06378	934.23378	-332.83932	32.58134	934.46129	-352.90413	267.57666	982.97241	-507.73628	89.07342	997.22412	-518.75721	310.20102	607.71141	-398.01537	287.21966	479.27208	-254.62294	-27.15913	816.32339	-302.10012	279.85407	296.24823	-186.0792	273.66058	107.98437	-162.61726	239.15127	39.7786	-208.14667	234.15741	106.65833	-22.5236	46.64365	706.27983	-549.20441	68.08914	534.80091	-481.56273	138.70625	351.11679	-547.25891	110.62145	125.40179	-676.17943	121.8434	58.59521	-570.91839	161.24548	83.22778	-757.52342
227	7.543	278.16736	1495.01587	-177.83234	149.20455	1500.16251	-160.73626	265.21156	1581.56693	-276.44798	141.08335	1582.32025	-256.56336	263.17009	1332.81021	-331.47316	121.25729	1331.3974	-321.97121	250.26793	1399.49356	-436.49208	101.05608	1404.14688	-420.83145	171.03388	1251.95435	-508.56918	189.32959	1259.48235	-284.31391	187.99786	1171.88049	-247.16375	373.02227	1365.45319	-407.06974	409.97059	1150.69427	-441.51676	390.93502	1042.06154	-461.29856	425.21595	936.80458	-441.73405	375.45792	795.57083	-368.48888	434.16336	790.22552	-421.9294	439.08611	745.61005	-375.70072	11.28056	1367.29965	-377.70283	-31.08196	1139.8275	-442.92969	-61.96367	1039.93103	-395.64018	-56.88261	924.60182	-393.4726	-73.02993	794.30313	-329.99119	-78.54042	764.33151	-269.15314	309.80934	931.14647	-298.17215	32.25375	931.17699	-321.53198	269.59949	979.83269	-474.01852	90.35298	993.28819	-487.0676	308.56188	605.74219	-365.0362	285.6702	474.52946	-228.89681	-23.57961	813.75626	-275.65987	279.00833	288.87232	-167.77922	271.68619	101.59379	-149.25779	233.58124	44.88958	-200.36148	243.20536	85.22044	-12.15146	49.29084	705.69916	-520.77805	69.45187	532.92503	-456.8169	139.32599	350.0071	-530.24551	108.36112	131.55252	-669.99451	120.83237	58.2412	-569.05617	157.86992	93.23395	-754.00581
